<svg xmlns="http://www.w3.org/2000/svg" width="960" height="520" viewBox="0 0 960 520" role="img" aria-label="Patientenbericht">
<defs>
  <filter id="shadow" x="-20%" y="-20%" width="140%" height="140%"><feDropShadow dx="10" dy="10" stdDeviation="12" flood-color="#c2c6d4" flood-opacity="0.8"/><feDropShadow dx="-8" dy="-8" stdDeviation="10" flood-color="#ffffff" flood-opacity="0.95"/></filter>
  <filter id="shadowSoft" x="-20%" y="-20%" width="140%" height="140%"><feDropShadow dx="5" dy="5" stdDeviation="8" flood-color="#c2c6d4" flood-opacity="0.55"/><feDropShadow dx="-4" dy="-4" stdDeviation="6" flood-color="#ffffff" flood-opacity="0.9"/></filter>
</defs>
<rect width="960" height="520" rx="36" fill="#f2f3fb"/>
<circle cx="880" cy="74" r="48" fill="#ffdbcb" opacity="0.75"/>
<circle cx="78" cy="454" r="72" fill="#d6e3ff" opacity="0.8"/>
<text x="40" y="72" font-family="Inter, Arial" font-size="34" font-weight="800" fill="#191c21">Patientenbericht</text>
<text x="40" y="104" font-family="Inter, Arial" font-size="17" fill="#424752">Freigegebene Werte werden verständlich, responsiv und druckoptimiert erklärt.</text>
<rect x="40" y="126" width="128" height="34" rx="17" fill="#00478d"/><text x="104" y="148" text-anchor="middle" font-family="Inter, Arial" font-size="12" font-weight="700" fill="#ffffff">HTML Report</text><rect x="190" y="126" width="128" height="34" rx="17" fill="#d6e3ff"/><text x="254" y="148" text-anchor="middle" font-family="Inter, Arial" font-size="12" font-weight="700" fill="#001b3d">Print CSS</text><rect x="340" y="126" width="128" height="34" rx="17" fill="#ffdbcb"/><text x="404" y="148" text-anchor="middle" font-family="Inter, Arial" font-size="12" font-weight="700" fill="#341100">Disclaimer</text>
<rect x="40" y="190" width="520" height="220" rx="28" fill="#f9f9ff" filter="url(#shadow)"/>
<path d="M80 350 H520 M80 295 H520 M80 240 H520" stroke="#c2c6d4" stroke-width="2" opacity="0.7"/>
<rect x="80" y="235" width="440" height="76" rx="16" fill="#d6e3ff" opacity="0.7"/>
<path d="M80 330 C150 292 190 315 250 278 C320 232 370 272 430 235 C470 210 500 225 520 202" fill="none" stroke="#00478d" stroke-width="8" stroke-linecap="round"/>
<circle cx="520" cy="202" r="12" fill="#00478d"/>
<rect x="600" y="190" width="260" height="220" rx="28" fill="#f9f9ff" filter="url(#shadow)"/>
<text x="630" y="245" font-family="Inter, Arial" font-size="18" font-weight="800" fill="#191c21">Fokuswert</text>
<text x="630" y="295" font-family="Inter, Arial" font-size="48" font-weight="800" fill="#00478d">92%</text>
<text x="630" y="330" font-family="Inter, Arial" font-size="16" fill="#424752">Confidence geprüft</text>
</svg>