<svg xmlns="http://www.w3.org/2000/svg" width="960" height="520" viewBox="0 0 960 520" role="img" aria-label="Import & Review">
<defs>
  <filter id="shadow" x="-20%" y="-20%" width="140%" height="140%"><feDropShadow dx="10" dy="10" stdDeviation="12" flood-color="#c2c6d4" flood-opacity="0.8"/><feDropShadow dx="-8" dy="-8" stdDeviation="10" flood-color="#ffffff" flood-opacity="0.95"/></filter>
  <filter id="shadowSoft" x="-20%" y="-20%" width="140%" height="140%"><feDropShadow dx="5" dy="5" stdDeviation="8" flood-color="#c2c6d4" flood-opacity="0.55"/><feDropShadow dx="-4" dy="-4" stdDeviation="6" flood-color="#ffffff" flood-opacity="0.9"/></filter>
</defs>
<rect width="960" height="520" rx="36" fill="#f2f3fb"/>
<circle cx="880" cy="74" r="48" fill="#ffdbcb" opacity="0.75"/>
<circle cx="78" cy="454" r="72" fill="#d6e3ff" opacity="0.8"/>
<text x="40" y="72" font-family="Inter, Arial" font-size="34" font-weight="800" fill="#191c21">Import & Review</text>
<text x="40" y="104" font-family="Inter, Arial" font-size="17" fill="#424752">Unsichere Werte werden strukturiert geprüft, korrigiert und freigegeben.</text>
<rect x="40" y="126" width="128" height="34" rx="17" fill="#00478d"/><text x="104" y="148" text-anchor="middle" font-family="Inter, Arial" font-size="12" font-weight="700" fill="#ffffff">PDF/OCR</text><rect x="190" y="126" width="128" height="34" rx="17" fill="#d6e3ff"/><text x="254" y="148" text-anchor="middle" font-family="Inter, Arial" font-size="12" font-weight="700" fill="#001b3d">Confidence</text><rect x="340" y="126" width="128" height="34" rx="17" fill="#ffdbcb"/><text x="404" y="148" text-anchor="middle" font-family="Inter, Arial" font-size="12" font-weight="700" fill="#341100">Freigabe</text>
<rect x="40" y="190" width="820" height="42" rx="18" fill="#f9f9ff" filter="url(#shadowSoft)"/><text x="70" y="216" font-family="Inter, Arial" font-size="15" font-weight="700" fill="#191c21">Hämoglobin · Wert bestätigen</text><text x="780" y="216" text-anchor="end" font-family="Inter, Arial" font-size="14" fill="#793100">Review</text><rect x="40" y="248" width="820" height="42" rx="18" fill="#f9f9ff" filter="url(#shadowSoft)"/><text x="70" y="274" font-family="Inter, Arial" font-size="15" font-weight="700" fill="#191c21">CRP · Referenzbereich prüfen</text><text x="780" y="274" text-anchor="end" font-family="Inter, Arial" font-size="14" fill="#ba1a1a">Offen</text><rect x="40" y="306" width="820" height="42" rx="18" fill="#f9f9ff" filter="url(#shadowSoft)"/><text x="70" y="332" font-family="Inter, Arial" font-size="15" font-weight="700" fill="#191c21">Vitamin D · Patientenerklärung</text><text x="780" y="332" text-anchor="end" font-family="Inter, Arial" font-size="14" fill="#00478d">Freigabe</text><rect x="40" y="364" width="820" height="42" rx="18" fill="#f9f9ff" filter="url(#shadowSoft)"/><text x="70" y="390" font-family="Inter, Arial" font-size="15" font-weight="700" fill="#191c21">Leukozyten · Berichtsvorschau</text><text x="780" y="390" text-anchor="end" font-family="Inter, Arial" font-size="14" fill="#1f7a45">Geprüft</text>
</svg>